# WaveFront *.obj file (generated by CINEMA 4D)

mtllib ./belly.mtl

v -22.075439453125 -17.79312515258789 -45.47856140136719
v -31.62919998168945 6.94671440124512 -46.35263824462891
v -24.27560043334961 -22.18132591247559 -27.39756011962891
v -42.95296096801758 11.59627437591553 -27.05047988891602
v -22.07539939880371 -17.79312515258789 -9.31655979156494
v -29.62179946899414 7.53083467483521 -7.65740013122559
v -34.57723999023438 21.59695434570312 -43.4546012878418
v -41.38320159912109 30.65067481994629 -27.17663955688477
v -32.9096794128418 34.74815368652344 -10.84895992279053
v -24.44960021972656 -5.18020534515381 -49.55780029296875
v -25.9844799041748 -5.18020534515381 -5.23736000061035
v -29.03516006469727 -4.22440528869629 -9.65071964263916
v -27.2647590637207 -6.97840547561646 -44.3189582824707
v -30.79207992553711 5.45495462417603 -12.59335994720459
v -25.08831977844238 -14.32792568206787 -12.1290397644043
v -43.89347839355469 5.65715456008911 -27.58395957946777
v -33.28607940673828 0.49167454242706 -42.5943603515625
v -25.60931968688965 -16.57864570617676 -40.37823867797852
v -34.22380065917969 24.71983528137207 -41.86743927001953
v -40.64168167114258 32.9241943359375 -26.57403945922852
v -35.97608184814453 26.27003479003906 -44.77716064453125
v -43.59915924072266 34.1159553527832 -26.59196090698242
v -18.7584400177002 -23.78128623962402 -37.45816040039062
v -20.73003959655762 -23.78128623962402 -27.39756011962891
v -18.75839996337891 -23.78128623962402 -17.33695983886719
v -29.12148094177246 -5.08904552459717 -7.68703985214233
v -24.87863922119141 -16.25064468383789 -10.08203983306885
v -33.31499862670898 5.414954662323 -11.17891979217529
v -45.48704147338867 5.29407453536987 -27.60091972351074
v -11.84232044219971 -17.79312515258789 -7.01775979995728
v -15.55060005187988 7.6787543296814 -1.45992004871368
v -18.07028007507324 29.82143402099609 -7.40199995040894
v -13.79687976837158 -5.18020534515381 -0.64780002832413
v -10.18383979797363 -23.78128623962402 -16.05788040161133
v -11.84239959716797 -17.79312515258789 -50.41500091552734
v -16.60404014587402 6.8775143623352 -54.99340057373047
v -18.12187957763672 26.72011375427246 -49.59104156494141
v -13.02947998046875 -5.18020534515381 -55.36363983154297
v -17.95599937438965 27.96071434020996 -47.81735992431641
v -18.85708045959473 29.27215385437012 -51.36651992797852
v -10.18387985229492 -23.78128623962402 -41.37488174438477
v -1.60935997962952 -17.79312515258789 -50.0761604309082
v -1.57120001316071 6.88683462142944 -58.36067962646484
v 18.85676002502441 -17.79312515258789 -45.47856140136719
v 28.52164077758789 7.18319463729858 -46.45075988769531
v 21.05695915222168 -22.18132591247559 -27.39756011962891
v 39.86648178100586 11.92183494567871 -27.18556022644043
v 18.8568000793457 -17.79312515258789 -9.31655979156494
v 26.62692070007324 7.75191450119019 -7.74912023544312
v -1.60927999019623 -17.79312515258789 -4.7189998626709
v -1.47935998439789 7.82667446136475 4.73759984970093
v -1.63556003570557 26.1020336151123 -50.36740112304688
v 31.32632064819336 30.71875381469727 -43.69400024414062
v 38.13296127319336 33.91935348510742 -27.35036087036133
v 31.39632034301758 25.6341552734375 -10.81443977355957
v -1.56959998607636 27.18839454650879 -3.99180006980896
v -1.60935997962952 -5.18020534515381 -55.89424133300781
v 21.23088073730469 -5.18020534515381 -49.55780029296875
v 22.7658805847168 -5.18020534515381 -5.23736000061035
v -1.60927999019623 -5.1802453994751 3.9417200088501
v 24.64236068725586 -4.21912527084351 -9.70411968231201
v 24.04680061340332 -6.97532558441162 -44.34999847412109
v 27.57419967651367 5.45803451538086 -12.62444019317627
v 21.87043952941895 -14.32484531402588 -12.16012001037598
v 23.55851936340332 -18.88232612609863 -25.98468017578125
v 22.39135932922363 -16.57556533813477 -40.40932083129883
v -1.65520000457764 27.73819541931152 -48.41471862792969
v 31.03215980529785 27.84851455688477 -11.16483974456787
v -1.68859994411469 28.1728343963623 -52.55744171142578
v 32.76712036132812 29.51535415649414 -8.29032039642334
v -1.60932004451752 -23.78128623962402 -40.01636123657227
v 15.53975963592529 -23.78128623962402 -37.45816040039062
v 17.51140022277832 -23.78128623962402 -27.39756011962891
v 15.53979969024658 -23.78128623962402 -17.33699989318848
v -1.60932004451752 -23.78128623962402 -14.77880001068115
v 25.90387916564941 -5.08472537994385 -7.73051977157593
v 21.66103935241699 -16.24632453918457 -10.12551975250244
v 30.0974006652832 5.41923475265503 -11.22239971160889
v 8.62376022338867 -17.79312515258789 -7.01779985427856
v 12.5738000869751 7.78931474685669 -1.50575995445251
v 14.93391990661621 21.26995468139648 -7.32664012908936
v 10.57831954956055 -5.18020534515381 -0.64780002832413
v 14.76428031921387 23.60151481628418 -7.83012008666992
v 15.64836025238037 25.44027519226074 -4.30719995498657
v 6.96524000167847 -23.78128623962402 -16.05788040161133
v 8.62368011474609 -17.79312515258789 -50.41500091552734
v 13.47140026092529 6.99571466445923 -55.04243850708008
v 9.81075954437256 -5.18020534515381 -55.36363983154297
v 6.96519994735718 -23.78128623962402 -41.37488174438477
v -1.60932004451752 -26.18624496459961 -27.39788055419922
v -10.18292045593262 -26.18624496459961 -27.39776039123535
v 6.96600008010864 -26.18620491027832 -27.39772033691406
# 92 vertices

vn -0.61037170886993 -0.28016903996468 -0.74091273546219
vn -0.55415719747543 -0.08778042346239 -0.82777070999146
vn -0.30407065153122 0.06519038975239 -0.95041638612747
vn -0.26508158445358 -0.24667064845562 -0.93214017152786
vn -0.86207920312881 -0.2527083158493 0.43926972150803
vn -0.81184750795364 -0.40608677268028 0.41952008008957
vn -0.82546544075012 -0.23599819839001 0.51274913549423
vn -0.37755900621414 -0.02045657858253 0.9257595539093
vn -0.32923007011414 0.14815698564053 0.93255406618118
vn -0.33430713415146 0.12007530778646 0.93478375673294
vn -0.37776935100555 0.0097777293995 0.92584812641144
vn -0.28595152497292 0.2290341258049 0.93047034740448
vn -0.29898944497108 0.14413526654243 0.94330817461014
vn -0.33904841542244 0.09226962178946 0.93623316287994
vn -0.29072448611259 0.23269201815128 -0.92808067798614
vn -0.12148854136467 0.31484714150429 -0.94133514165878
vn -0.86308652162552 0.02128615044057 0.50460737943649
vn -0.90511953830719 -0.02932602353394 -0.42414453625679
vn -0.87043952941895 0.01382612530142 -0.4920811355114
vn -0.08754130452871 -0.93015629053116 0.35657501220703
vn 0.00000068091629 -0.93059152364731 0.36605939269066
vn 0.000000475397 -0.85161912441254 0.52416110038757
vn -0.1005689278245 -0.83825188875198 0.53592878580093
vn -0.41440179944038 -0.35841530561447 -0.83654624223709
vn -0.74394398927689 -0.32305726408958 -0.5849626660347
vn -0.69008898735046 -0.31168088316917 -0.65317094326019
vn -0.24587319791317 -0.50469660758972 0.8275431394577
vn -0.25285443663597 -0.4598431289196 0.85123962163925
vn -0.82907438278198 0.05687208473682 -0.55623853206635
vn -0.79208391904831 -0.33195185661316 -0.5122606754303
vn -0.73753792047501 -0.37252223491669 0.56326282024384
vn -0.768126308918 0.36879488825798 -0.52342361211777
vn -0.00468544103205 0.79359674453735 -0.60842603445053
vn -0.01641803979874 -0.94718343019485 -0.32027179002762
vn -0.04838388413191 -0.97341257333756 -0.22389063239098
vn -0.53580456972122 -0.82520586252213 0.17874222993851
vn -0.11978140473366 -0.99256563186646 0.02158457413316
vn -0.11069652438164 -0.99033844470978 -0.08352266252041
vn -0.07316764444113 -0.93850260972977 -0.33743044734001
vn -0.06050804629922 -0.99804455041885 0.01567977666855
vn -0.5459970831871 -0.8205806016922 -0.16892203688622
vn -0.58279228210449 -0.81232911348343 0.02178489416838
vn -0.23965905606747 -0.82578855752945 -0.51052594184875
vn -0.09435926377773 -0.84303420782089 -0.52951836585999
vn -0.59756314754486 -0.7733787894249 0.21166855096817
vn 0.93003225326538 0.31504398584366 0.18917518854141
vn -0.11807494610548 0.98743450641632 0.10503028333187
vn 0.71726703643799 0.40801334381104 0.5648478269577
vn -0.37763428688049 0.04000309482217 0.92509031295776
vn -0.2707567512989 0.31220549345016 0.91061437129974
vn -0.10317773371935 -0.82872897386551 0.55005693435669
vn -0.2591727077961 -0.41378393769264 0.8727040886879
vn -0.00075903203106 -0.12038376927376 -0.9927271604538
vn -0.00038169728941 -0.26040118932724 -0.96550041437149
vn -0.44962057471275 0.14226096868515 -0.88181811571121
vn -0.00655345013365 -0.39395633339882 -0.91910576820374
vn 0.00000000302686 -0.3939648270607 -0.91912549734116
vn -0.39787116646767 0.63090574741364 -0.66607546806335
vn 0.01572838798165 -0.9105361700058 -0.41313019394875
vn 0.00000076393593 -0.93108183145523 -0.36481031775475
vn -0.00000009326331 -0.84311157464981 -0.53773862123489
vn 0.30716371536255 -0.10862254351377 -0.94543725252151
vn 0.47293984889984 -0.09326361864805 -0.87614488601685
vn 0.44790652394295 -0.22799541056156 -0.86452174186707
vn 0.26421555876732 -0.24895741045475 -0.93177807331085
vn 0.75529950857162 -0.58702057600021 0.29142674803734
vn 0.81609946489334 -0.47825413942337 0.32442978024483
vn 0.89515197277069 -0.27727362513542 0.3490304350853
vn 0.9271445274353 -0.19827724993229 0.31794515252113
vn 0.34967681765556 0.14839336276054 0.92504352331162
vn 0.3791472017765 -0.02611741237342 0.92496770620346
vn 0.3793358206749 0.00554402079433 0.92524242401123
vn 0.33343085646629 0.12761002779007 0.93409824371338
vn 0.21740330755711 0.20834764838219 0.95358639955521
vn 0.25911971926689 0.25969630479813 0.93027675151825
vn 0.8781965970993 -0.02762239985168 0.47750151157379
vn 0.89422035217285 -0.00167725956999 -0.44762390851974
vn 0.08754627406597 -0.93015563488007 0.3565756380558
vn 0.10056956112385 -0.83825176954269 0.53592878580093
vn 0.41440126299858 -0.35841473937035 -0.83654671907425
vn 0.66980773210526 -0.74206757545471 0.02632968686521
vn 0.76024240255356 -0.59304755926132 0.26519051194191
vn 0.25285467505455 -0.45984408259392 0.8512390255928
vn 0.24587467312813 -0.50469768047333 0.8275420665741
vn 0.790502846241 -0.33245033025742 -0.51437538862228
vn 0.62285679578781 -0.75933063030243 -0.18832530081272
vn 0.69346678256989 -0.69045996665955 -0.20583705604076
vn 0.14947041869164 0.19897003471851 0.96853989362717
vn 0.29900544881821 -0.88354313373566 0.36048206686974
vn 0.07317217439413 -0.93850153684616 -0.33743250370026
vn 0.06051731109619 -0.99804401397705 0.01567828655243
vn 0.00000124962014 -0.99995350837708 0.00964414514601
vn 0.58279234170914 -0.81232911348343 0.0217833314091
vn 0.54599618911743 -0.82058089971542 -0.16892360150814
vn 0.23965881764889 -0.82578837871552 -0.51052641868591
vn 0.09435903280973 -0.84303414821625 -0.52951848506927
vn 0.59756410121918 -0.77337843179703 0.21166704595089
vn -0.89759540557861 0.20463946461678 0.39044234156609
vn -0.54962551593781 0.4244222342968 0.71956765651703
vn 0.37914416193962 0.03719989582896 0.92458957433701
vn 0.33852845430374 0.35831364989281 0.87006312608719
vn 0.10317805409431 -0.82872903347015 0.5500568151474
vn 0.25917169451714 -0.41378477215767 0.87270396947861
vn 0.00655345665291 -0.39395633339882 -0.91910582780838
vn -0.12753251194954 -0.98374056816101 0.12645146250725
vn 0.11071153730154 -0.99033576250076 -0.08353433012962
vn 0.11979734152555 -0.99256378412247 0.02158064953983
vn 0.12754900753498 -0.98373794555664 0.12645529210567
# 108 normals

vt 0.46128299832344 0.87693101167679 0
vt 0.44663798809052 0.89616900682449 0
vt 0.47403100132942 0.89815199375153 0
vt 0.48050999641418 0.8800910115242 0
vt 0.35989800095558 0.87836998701096 0
vt 0.35361701250076 0.85926103591919 0
vt 0.34395998716354 0.85925996303558 0
vt 0.35030800104141 0.88117998838425 0
vt 0.36895701289177 0.89486503601074 0
vt 0.36255100369453 0.90141999721527 0
vt 0.30361700057983 0.88639903068542 0
vt 0.30606698989868 0.91004198789597 0
vt 0.33456501364708 0.90629696846008 0
vt 0.32739999890327 0.88391101360321 0
vt 0.34999099373817 0.94629800319672 0
vt 0.37918901443481 0.94851100444794 0
vt 0.46757599711418 0.92977601289749 0
vt 0.49583101272583 0.9320160150528 0
vt 0.4964280128479 0.89857697486877 0
vt 0.40950700640678 0.93673402070999 0
vt 0.40647399425507 0.90220099687576 0
vt 0.43910700082779 0.92039102315903 0
vt 0.3282969892025 0.83910101652145 0
vt 0.31244099140167 0.83651000261307 0
vt 0.30701398849487 0.85794699192047 0
vt 0.32615700364113 0.85848301649094 0
vt 0.46675598621368 0.85695898532867 0
vt 0.4825139939785 0.8612459897995 0
vt 0.45319798588753 0.87389397621155 0
vt 0.44081699848175 0.8860080242157 0
vt 0.40595701336861 0.89174902439117 0
vt 0.45771101117134 0.855976998806 0
vt 0.40898099541664 0.94136601686478 0
vt 0.43766298890114 0.92650496959686 0
vt 0.46684598922729 0.93363797664642 0
vt 0.49541801214218 0.93686598539352 0
vt 0.01369199994951 0.2920800447464 0
vt 0.01301299966872 0.25564002990723 0
vt 0.00374100008048 0.25315606594086 0
vt 0.00374100008048 0.29264307022095 0
vt 0.03796299919486 0.36863005161285 0
vt 0.01722100004554 0.32962906360626 0
vt 0.00982300005853 0.33319103717804 0
vt 0.03103299997747 0.3707150220871 0
vt 0.46148198843002 0.82592904567718 0
vt 0.47020798921585 0.84132897853851 0
vt 0.48404800891876 0.84529501199722 0
vt 0.48179998993874 0.82115602493286 0
vt 0.45464500784874 0.82847905158997 0
vt 0.35468301177025 0.82787203788757 0
vt 0.34287801384926 0.84192901849747 0
vt 0.36109998822212 0.83165800571442 0
vt 0.67579001188278 0.6861190199852 0
vt 0.65934497117996 0.67677700519562 0
vt 0.65934199094772 0.68118101358414 0
vt 0.67611199617386 0.68985003232956 0
vt 0.72223997116089 0.68685400485992 0
vt 0.69187897443771 0.69644302129745 0
vt 0.6907160282135 0.7016389966011 0
vt 0.72241997718811 0.69133400917053 0
vt 0.31802800297737 0.94828802347183 0
vt 0.49672999978065 0.88044399023056 0
vt 0.49703800678253 0.86070096492767 0
vt 0.4973129928112 0.84293001890182 0
vt 0.51889199018478 0.89897900819778 0
vt 0.54635697603226 0.89762002229691 0
vt 0.53228497505188 0.87801200151443 0
vt 0.51296997070312 0.88061398267746 0
vt 0.65019702911377 0.86161303520203 0
vt 0.64011299610138 0.86179304122925 0
vt 0.63533198833466 0.88140898942947 0
vt 0.64405602216721 0.88442200422287 0
vt 0.62478798627853 0.89837503433228 0
vt 0.6312490105629 0.90525901317596 0
vt 0.6604819893837 0.91022896766663 0
vt 0.6900839805603 0.91405099630356 0
vt 0.69251698255539 0.88937801122665 0
vt 0.6677680015564 0.88696897029877 0
vt 0.61416500806808 0.93588399887085 0
vt 0.64776200056076 0.93596303462982 0
vt 0.58636301755905 0.90486699342728 0
vt 0.58169001340866 0.94440799951553 0
vt 0.55245101451874 0.93598902225494 0
vt 0.68867999315262 0.8597229719162 0
vt 0.6827210187912 0.83741497993469 0
vt 0.66620802879334 0.84035098552704 0
vt 0.66872400045395 0.86053097248077 0
vt 0.52741497755051 0.85789501667023 0
vt 0.51153802871704 0.86169600486755 0
vt 0.63183599710464 0.83309900760651 0
vt 0.62551999092102 0.83835804462433 0
vt 0.54044902324677 0.8752189874649 0
vt 0.53647798299789 0.85719299316406 0
vt 0.54685199260712 0.83383202552795 0
vt 0.54038602113724 0.82982003688812 0
vt 0.61334800720215 0.94033801555634 0
vt 0.64687198400497 0.94047200679779 0
vt 0.06578300148249 0.09198200702667 0
vt 0.07412000000477 0.09179401397705 0
vt 0.06928800046444 0.05051207542419 0
vt 0.0591249987483 0.04913198947906 0
vt 0.51049697399139 0.84570598602295 0
vt 0.51349902153015 0.82165896892548 0
vt 0.49766001105309 0.82088100910187 0
vt 0.53363698720932 0.827064037323 0
vt 0.52444797754288 0.84217399358749 0
vt 0.65103697776794 0.84352600574493 0
vt 0.63847899436951 0.82903802394867 0
vt 0.1430280059576 0.59936302900314 0
vt 0.13873200118542 0.59790503978729 0
vt 0.14239400625229 0.61770904064178 0
vt 0.14705100655556 0.61841803789139 0
vt 0.14575199782848 0.63685703277588 0
vt 0.1509909927845 0.63765102624893 0
vt 0.67746299505234 0.95385897159576 0
vt 0.67389297485352 0.81337201595306 0
vt 0.65793001651764 0.81942600011826 0
vt 0.33592799305916 0.81894898414612 0
vt 0.32056599855423 0.81337296962738 0
# 119 texture coordinates

o belly
usemtl None
f 10/1/1 2/2/2 36/3/3 38/4/4
f 12/5/5 15/6/6 5/7/6 11/8/5
f 14/9/7 12/5/5 11/8/5 6/10/7
f 60/11/8 51/12/9 31/13/10 33/14/11
f 32/15/12 9/16/13 6/10/14 31/13/10
f 37/17/15 52/18/16 43/19/16 36/3/3
f 9/16/17 8/20/17 4/21/17 6/10/17
f 8/20/18 7/22/18 2/2/19 4/21/19
f 34/23/20 75/24/21 50/25/22 30/26/23
f 1/27/24 10/1/1 38/4/4 35/28/24
f 13/29/25 17/30/26 2/2/2 10/1/1
f 50/25/27 60/11/27 33/14/28 30/26/28
f 17/30/29 16/31/29 4/21/19 2/2/19
f 18/32/30 13/29/25 10/1/1 1/27/30
f 16/31/31 14/9/7 6/10/7 4/21/31
f 20/33/32 19/34/32 7/22/32 8/20/32
f 39/35/33 67/36/33 52/18/33 37/17/33
f 40/37/34 69/38/35 67/39/35 39/40/34
f 22/41/36 21/42/36 19/43/36 20/44/36
f 24/45/37 23/46/38 41/47/39 91/48/40
f 23/46/41 24/45/42 3/49/42 1/27/41
f 41/47/39 23/46/43 1/27/43 35/28/44
f 24/50/42 25/51/45 5/7/45 3/52/42
f 26/53/46 27/54/46 15/55/46 12/56/46
f 29/57/47 28/58/47 14/59/47 16/60/47
f 28/58/48 26/53/48 12/56/48 14/59/48
f 33/14/11 31/13/10 6/10/14 11/8/49
f 56/61/50 32/15/12 31/13/10 51/12/9
f 25/51/51 34/23/20 30/26/23 5/7/51
f 30/26/28 33/14/28 11/8/52 5/7/52
f 38/4/4 36/3/3 43/19/53 57/62/54
f 7/22/55 37/17/15 36/3/3 2/2/2
f 35/28/56 38/4/4 57/62/54 42/63/57
f 19/34/58 39/35/58 37/17/58 7/22/58
f 21/42/59 40/37/34 39/40/34 19/43/59
f 71/64/60 41/47/39 35/28/44 42/63/61
f 87/65/62 45/66/63 58/67/64 88/68/65
f 48/69/66 64/70/67 61/71/68 59/72/68
f 59/72/68 61/71/68 63/73/69 49/74/69
f 80/75/70 51/76/71 60/77/71 82/78/72
f 49/74/73 55/79/74 81/80/75 80/75/70
f 47/81/76 54/82/76 55/79/76 49/74/76
f 45/66/77 53/83/77 54/82/77 47/81/77
f 50/84/22 75/85/21 85/86/78 79/87/79
f 88/68/65 58/67/64 44/88/80 86/89/80
f 46/90/81 65/91/82 64/70/67 48/69/66
f 82/78/83 60/77/84 50/84/84 79/87/83
f 58/67/85 62/92/85 66/93/85 44/88/85
f 44/88/86 66/93/87 65/94/87 46/95/81
f 55/79/74 68/96/88 83/97/88 81/80/75
f 68/98/89 70/99/89 84/100/89 83/101/89
f 71/64/60 89/102/90 92/103/91 90/104/92
f 46/95/81 73/105/93 72/106/94 44/88/86
f 44/88/95 72/106/95 89/102/90 86/89/96
f 48/69/66 74/107/97 73/108/93 46/90/81
f 64/109/98 77/110/98 76/111/98 61/112/98
f 61/112/99 76/111/99 78/113/99 63/114/99
f 49/74/73 80/75/70 82/78/72 59/72/100
f 80/75/70 81/80/75 56/115/101 51/76/101
f 79/87/79 85/86/78 74/107/102 48/69/102
f 59/72/103 82/78/83 79/87/83 48/69/103
f 43/19/53 87/65/62 88/68/65 57/62/54
f 57/62/54 88/68/65 86/89/104 42/63/57
f 86/89/96 89/102/90 71/64/60 42/63/61
f 90/116/92 92/117/91 85/86/78 75/85/21
f 25/51/105 24/50/37 91/118/40 34/23/20
f 91/48/40 41/47/39 71/64/60 90/104/92
f 34/23/20 91/118/40 90/119/92 75/24/21
f 89/102/90 72/106/106 73/105/107 92/103/91
f 92/117/91 73/108/107 74/107/108 85/86/78

